<svg xmlns="http://www.w3.org/2000/svg" xmlns:xlink="http://www.w3.org/1999/xlink" viewBox="0 0 458.42 149.25"><defs><style>.cls-1,.cls-4{fill:none;}.cls-2{fill:#fff;}.cls-3{clip-path:url(#clip-path);}.cls-4{stroke:#fff;stroke-miterlimit:10;stroke-width:2px;}</style><clipPath id="clip-path" transform="translate(0 -11.2)"><path class="cls-1" d="M437.36,99.38a2.25,2.25,0,0,0,.51-.19,28.34,28.34,0,0,0,3.34-4.35c7.71-10.31,25.87-35.7,22.83-39.9-3.82-5.27-15.56-69.36-62.9-51.95L370.67,24S322.94,4,302.77,21.71s-23.48,79.94-2.91,95.36,96,50.89,96,50.89l2.77-8.9H396l-3.68-2.87s35.19-53.7,34.93-54.07,6.2-1.85,6.2-1.85l-.58-.24a15.18,15.18,0,0,0,3.51-.38Z"/></clipPath></defs><g id="Warstwa_2" data-name="Warstwa 2"><g id="Warstwa_6" data-name="Warstwa 6"><path class="cls-2" d="M77.22,64.62c2.48,0,3.72-.59,3.72-1.8q0-.9.63-.9c.42,0,.63.5.63,1.47a2.43,2.43,0,0,1-1.68,2.25,7.06,7.06,0,0,1-3,.78,14.08,14.08,0,0,1-2.13-.12A56.7,56.7,0,0,1,60.3,62.46a73.18,73.18,0,0,0-7.62,17.88A60.78,60.78,0,0,1,49.11,89a35.26,35.26,0,0,1-5,7.72A22.84,22.84,0,0,1,38,101.7a33.18,33.18,0,0,1-16.14,3.73A28.28,28.28,0,0,1,7.68,101.7,14.58,14.58,0,0,1,.12,90.43a28.16,28.16,0,0,1-.12-3,20.93,20.93,0,0,1,1.17-5.74A9.71,9.71,0,0,1,5.58,76a4.59,4.59,0,0,1,2-.79c.72,0,1,.35,1,1a6.46,6.46,0,0,1-1.23,1c-.66.45-1.29.93-1.89,1.43A8.64,8.64,0,0,0,3.6,81,11.44,11.44,0,0,0,2,86.94c0,5,1.72,8.92,5.16,11.64a20.07,20.07,0,0,0,6.18,3.49,20.8,20.8,0,0,0,6.84,1.2h.3q12.42-.31,20.4-9,5-5.46,13.8-24.67a69.25,69.25,0,0,1,3.84-7.74,64.29,64.29,0,0,0-19.08-3.35q-8.46,0-13.74,5.09-4.26,4.09-4.26,8.52c0,3.24,1.42,5.31,4.26,6.18a9.82,9.82,0,0,0,2.73.42,10.87,10.87,0,0,0,2.82-.44,7.38,7.38,0,0,0,3.06-1.87,11.31,11.31,0,0,0,2.22-2.79,3.62,3.62,0,0,0,.63-2.09V71.4a.86.86,0,0,1,.84-.27q.36.16.36.75a9,9,0,0,1-4.74,7A9.26,9.26,0,0,1,29,80.4a11.14,11.14,0,0,1-3.84-.6,9.26,9.26,0,0,1-6.24-6.66,11.63,11.63,0,0,1-.42-3.06,12.74,12.74,0,0,1,2.22-7q4-6.11,12.42-7.38a25,25,0,0,1,3.66-.3q1.74,0,4,.18A36.76,36.76,0,0,1,47,56.76q3.81,1,7.8,2.37c2.66.9,4.25,1.44,4.77,1.59,2-2.4,3.42-3.61,4.38-3.66a2.47,2.47,0,0,1,.81-.12c.34,0,.61.29.81.84s.06.93-.42,1.08a1.69,1.69,0,0,1-.78-.06c-.24-.15-.73.09-1.47.75A16.8,16.8,0,0,0,61.2,61.2a84.1,84.1,0,0,0,9.9,2.61A37.52,37.52,0,0,0,77.22,64.62Z" transform="translate(0 -11.2)"/><path class="cls-2" d="M83.46,78.84l-.3,1a76.29,76.29,0,0,1-4.8,12.84c-2.6,4.81-5.44,7.2-8.52,7.2a3.34,3.34,0,0,1-2.94-1.11,4.3,4.3,0,0,1-.87-2c-.06-.59-.09-1.11-.09-1.55a13.15,13.15,0,0,1,.54-3.54q-4.44,8.09-8,8.09A4,4,0,0,1,56.1,99a3,3,0,0,1-1.32-2,1.37,1.37,0,0,1-.18-.72,12.68,12.68,0,0,1,2.22-6.24q-1,0-.54-1L57.36,87c2-3.85,3.08-6,3.36-6.61a2.34,2.34,0,0,1,2.34-1.26h3.66q-2.16,1.58-4.35,6c-1.46,3-2.58,5.32-3.36,7A10.32,10.32,0,0,0,57.84,96,3.11,3.11,0,0,0,58.29,98a1.4,1.4,0,0,0,1.17.58,2.84,2.84,0,0,0,1.74-1,16.41,16.41,0,0,0,1.86-2.13c.56-.75,1.13-1.62,1.71-2.58S65.88,91,66.36,90.1s1-1.86,1.56-3,1-2,1.32-2.68c1.16-2.31,1.8-3.66,1.92-4a2.21,2.21,0,0,1,2.28-1.26H77.1a4.7,4.7,0,0,1-.66.48,5.33,5.33,0,0,0-1.74,1.74,52.5,52.5,0,0,0-3.78,7.26c-1.6,4.08-2.4,6.71-2.4,7.87,0,1.44.54,2.18,1.62,2.21h.3q4.32,0,8.52-10.43A7.93,7.93,0,0,1,78.12,85a9.48,9.48,0,0,1,.36-2.7q1-3.47,3.24-4.25a1.85,1.85,0,0,1,.78-.19C83.14,77.82,83.46,78.17,83.46,78.84Z" transform="translate(0 -11.2)"/><path class="cls-2" d="M96.18,78.78c2.92,0,4.38,1.85,4.38,5.52a13,13,0,0,1-1.32,5.4,21.15,21.15,0,0,1-5,7.08A2.88,2.88,0,0,0,97,98.28a4.12,4.12,0,0,0,3.06-1.62,16.15,16.15,0,0,0,2.58-3.26c.52-.94.9-1.63,1.14-2.08s.55-1.06.93-1.88l.69-1.5a.5.5,0,0,1,.45-.3.45.45,0,0,1,.48.21.71.71,0,0,1,0,.66l-.36.84c-.24.56-.42,1-.54,1.19l-.63,1.29c-.3.63-.56,1.11-.78,1.48s-.52.84-.9,1.43a14.28,14.28,0,0,1-1,1.45q-.45.53-1.11,1.2a6.62,6.62,0,0,1-1.26,1,5.46,5.46,0,0,1-2.82.91,4.83,4.83,0,0,1-3.84-1.57,8.74,8.74,0,0,1-5.1,2c-2.92,0-4.38-1.83-4.38-5.51a13,13,0,0,1,1.32-5.41A20.3,20.3,0,0,1,90,81.72C92.15,79.77,94.22,78.78,96.18,78.78Zm.66,1.86q-1.62,0-3.84,2.16a19.91,19.91,0,0,0-4,5.89,17.23,17.23,0,0,0-2.1,7.08q0,2.76,2.1,2.76A5.38,5.38,0,0,0,92.4,96.9a5,5,0,0,1-1-2.93q.12-2.58,2.1-2.58a1.7,1.7,0,0,1,1.29.54,1.49,1.49,0,0,1,.51,1,3.85,3.85,0,0,1-.12.94,33.38,33.38,0,0,0,2.34-4.27,13.54,13.54,0,0,0,1.5-6C99.06,81.63,98.32,80.64,96.84,80.64Zm.36-5.94a.52.52,0,0,1-.21-.09.31.31,0,0,1-.15-.3.69.69,0,0,1,.12-.39,17.11,17.11,0,0,1,1.71-1.38q1.59-1.19,3.45-2.49t2.7-1.92a2.74,2.74,0,0,1,1.65-.62,3.46,3.46,0,0,1,1.44.29q.63.32.63.75a1.79,1.79,0,0,1-.18.81c-.2.48-2,1.5-5.4,3S97.64,74.7,97.2,74.7Z" transform="translate(0 -11.2)"/><path class="cls-2" d="M108.12,82.2a2.13,2.13,0,0,0,.18-1,2.86,2.86,0,0,0-.78-1.56l3.3-.06c.92,0,1.46.18,1.62.51s0,.88-.36,1.59l-4.8,11.22q-1.5,3.56-3.72,7.92c1.56-.59,2.7-1.06,3.42-1.37a12.27,12.27,0,0,0,2.61-1.75,13.31,13.31,0,0,0,2.64-2.91q1.11-1.64,3.75-6.63.42-.83.75-.66a.55.55,0,0,1,.33.49,11.16,11.16,0,0,1-1,2.3q-1,2-2,3.75a21.08,21.08,0,0,1-2.64,3.54,13.84,13.84,0,0,1-3.6,2.89,39.74,39.74,0,0,1-5.28,2.27q-4.62,8.4-9.36,12.37a17.35,17.35,0,0,1-4.26,2.54,12.94,12.94,0,0,1-5.13,1,6.61,6.61,0,0,1-4.11-1.11A3.29,3.29,0,0,1,78.24,115a8.71,8.71,0,0,1,.9-3.54,11.14,11.14,0,0,1,5.64-4.91,43.18,43.18,0,0,1,8.1-2.68q5-1.23,6.48-1.64c1-1.73,1.59-2.77,1.77-3.16l4.35-9q-1,0-.54-1ZM80.28,112.8a5.48,5.48,0,0,0-.66,2.4,2,2,0,0,0,.84,1.71,3.3,3.3,0,0,0,2,.63q3.48,0,7.5-3.6a37.6,37.6,0,0,0,8.22-9.83,117.8,117.8,0,0,0-12.42,3.71A10.45,10.45,0,0,0,80.28,112.8Zm33.3-36.36a2.79,2.79,0,0,1-1.86.72,1.89,1.89,0,0,1-1.56-.65,1.94,1.94,0,0,1-.54-1.15,7.57,7.57,0,0,1,.09-1.08,2.44,2.44,0,0,1,.93-1.32,2.84,2.84,0,0,1,1.86-.72,2,2,0,0,1,1.59.63,1.81,1.81,0,0,1,.57,1.12,5.92,5.92,0,0,1-.12,1.1A2.58,2.58,0,0,1,113.58,76.44Z" transform="translate(0 -11.2)"/><path class="cls-2" d="M195.24,55.68l-2.52.54a95.79,95.79,0,0,0-7.38,19.32,59.14,59.14,0,0,1-3.48,9.09,48.65,48.65,0,0,1-5.58,9.22q-11.94,15.29-30.54,15.29-8.64,0-13.74-3.71a12.2,12.2,0,0,1-4.62-6.73,14.47,14.47,0,0,1-.42-3.84,15.93,15.93,0,0,1,1.23-5.54,14.83,14.83,0,0,1,4-5.71q2.76-2.48,4.38-2.6c.4,0,.64,0,.72.17s-.1.39-.66.66a12.05,12.05,0,0,0-4.14,3.54,14.36,14.36,0,0,0-3.54,9.48,10,10,0,0,0,2.58,6.91,17,17,0,0,0,9.18,4.92,20.35,20.35,0,0,0,4,.59c.92,0,1.87,0,2.85,0a19.17,19.17,0,0,0,3.87-.64,33.85,33.85,0,0,0,9.54-4.08,41.62,41.62,0,0,0,7.8-6.09,54.48,54.48,0,0,0,6-7.22,59.83,59.83,0,0,0,7.08-13.33,131.5,131.5,0,0,1,9-19.37,83.24,83.24,0,0,0-15.18,4.37,29.86,29.86,0,0,0-8.94,5.64,18.68,18.68,0,0,0-5.1,9.06,11,11,0,0,0-.36,2.64,5.91,5.91,0,0,0,1.38,4.08,3.94,3.94,0,0,0,3,1.56,9.38,9.38,0,0,0,3.42-.72,7.86,7.86,0,0,0,3.21-2.4,9.14,9.14,0,0,0,1.92-5.82,3,3,0,0,0-.48-2.1q-.12-.18.12-.54.6-.9,1.14,0a7,7,0,0,1,.78,3.27,8.15,8.15,0,0,1-1.14,3.87,10.78,10.78,0,0,1-5.88,5.28,11.61,11.61,0,0,1-4.11.72,7.82,7.82,0,0,1-4.71-2,6.61,6.61,0,0,1-2.52-5.52,12.56,12.56,0,0,1,.24-2.34Q161,60.2,191.82,55a14.77,14.77,0,0,1,2-2.82,6.47,6.47,0,0,1,2.4-2,5.75,5.75,0,0,1,1.65-.33c1.32,0,2,.57,2,1.69a3.1,3.1,0,0,1-1.44,2.75A13,13,0,0,1,195.24,55.68Zm-1.5-1c2.72-.55,4-1.32,3.9-2.28a.75.75,0,0,0-.81-.72C196.37,51.72,195.34,52.73,193.74,54.72Z" transform="translate(0 -11.2)"/><path class="cls-2" d="M198.9,96.31q0,1.92,1.56,1.92,2.82,0,7.5-9.42c.12-.24.23-.49.33-.73a.82.82,0,0,1,.48-.47c.22-.08.37,0,.45.15a1.19,1.19,0,0,1-.12.86q-4.8,11.17-9.72,11.16a3,3,0,0,1-2.58-1.43,5.13,5.13,0,0,1-1-2.86,10.72,10.72,0,0,1,.3-2.6q-3.48,5.76-6,6.54a3.65,3.65,0,0,1-1.41.3,5.12,5.12,0,0,1-1.35-.19q-2.94-.77-2.94-4.68A15.21,15.21,0,0,1,185.79,89a24.45,24.45,0,0,1,3.81-6.16,12.18,12.18,0,0,1,5.94-4,9.73,9.73,0,0,1,3-.41,8.44,8.44,0,0,1,3.81,1.07q4.08-7.68,7-14.22a6.23,6.23,0,0,1,1.65-2.55,2.74,2.74,0,0,1,1.5-.57h.84c.1,0,.48.06,1.14.15a5.41,5.41,0,0,0,1.53.09q-1.38,1.26-7.32,12.24-7.56,14-9.12,18.73A9.23,9.23,0,0,0,198.9,96.31Zm2.94-15.78a3,3,0,0,0-2.19-.79q-1.41,0-3.93,2.1a28,28,0,0,0-6.66,8.28,12.07,12.07,0,0,0-1.74,5.35,3.76,3.76,0,0,0,.39,1.73,1.29,1.29,0,0,0,1.23.79q2,0,5-4.21A130.11,130.11,0,0,0,201.84,80.53Z" transform="translate(0 -11.2)"/><path class="cls-2" d="M210.9,90.54a11.93,11.93,0,0,0-.84,4.57,4.34,4.34,0,0,0,.75,2.67,2.51,2.51,0,0,0,2.13,1q5.46,0,9.9-10.26c.28-.64.62-.92,1-.85a.3.3,0,0,1,.24.31,24.76,24.76,0,0,1-1.35,3.14A25,25,0,0,1,220,95.82Q217,100,212.46,100a5.78,5.78,0,0,1-4.08-1.56,5.54,5.54,0,0,1-1.68-4.27A14.61,14.61,0,0,1,208,88.48a22,22,0,0,1,3.51-5.65,13.45,13.45,0,0,1,5.1-3.8,6.64,6.64,0,0,1,2.64-.61,4.14,4.14,0,0,1,2.34.72,2.44,2.44,0,0,1,1,1.87c0,2.39-1.44,4.7-4.32,6.89a12.85,12.85,0,0,1-3.72,1.84A12.5,12.5,0,0,1,210.9,90.54ZM221,80.94c0-.79-.32-1.2-1-1.2q-1.68,0-5.1,4.14a30.94,30.94,0,0,0-3.6,5.65,9.77,9.77,0,0,0,3-.72,11.64,11.64,0,0,0,3.39-1.92Q221,84.07,221,80.94Z" transform="translate(0 -11.2)"/><path class="cls-2" d="M238.19,88.41a25.41,25.41,0,0,0-2.36,5.7,15.2,15.2,0,0,0-.39,3.07c0,.77.29,1.17.9,1.17s1.69-.7,2.81-2.11a43.09,43.09,0,0,0,4.87-8c.15-.37.33-.56.54-.61s.48,0,.48.37a1.68,1.68,0,0,1-.19.71q-5.52,11.17-9.29,11.16a3.26,3.26,0,0,1-2.83-1.67,4.78,4.78,0,0,1-.54-2.41,14.29,14.29,0,0,1,.61-3.66Q228,99.9,224.52,99.9a2.78,2.78,0,0,1-1.75-.59Q221,98.05,221,95q0-5.88,5.1-11.95a13.34,13.34,0,0,1,7.07-4.38,8.5,8.5,0,0,1,2.16-.3A6.45,6.45,0,0,1,240,80.28a1.17,1.17,0,0,1,.35,1.26.83.83,0,0,1-1,.49,2.76,2.76,0,0,0-2.88-2.17c-1.73,0-3.85,1.37-6.36,4.08a32.52,32.52,0,0,0-4,5.64c-1.56,2.61-2.35,4.69-2.35,6.24s.5,2.34,1.5,2.34q3.61,0,9.42-11a14,14,0,0,1,1.93-3,2.6,2.6,0,0,1,2-.81,10.35,10.35,0,0,1,1.23.18,3.84,3.84,0,0,0,1.47.07A23.12,23.12,0,0,0,238.19,88.41Z" transform="translate(0 -11.2)"/><path class="cls-2" d="M246.77,89.86c-.32.94-.59,1.83-.81,2.7a10.37,10.37,0,0,0-.33,2.58,4.9,4.9,0,0,0,.6,2.39,2,2,0,0,0,1.92,1.12q2.16,0,4.2-2.91a61.8,61.8,0,0,0,4.32-7.42c.32-.55.62-.78.9-.66a.48.48,0,0,1,.12.63c-.12.27-.37.82-.75,1.69s-.66,1.46-.84,1.8l-1,1.79a12.25,12.25,0,0,1-1.2,1.92q-.51.63-1.38,1.62a7.09,7.09,0,0,1-1.65,1.47,7.42,7.42,0,0,1-4,1.32,4.53,4.53,0,0,1-2.88-.8,3.18,3.18,0,0,1-1.23-1.74,7.6,7.6,0,0,1-.21-1.66c0-.47,0-1.09.06-1.85a17.88,17.88,0,0,1,.75-3.73q.57-1.78.63-2A84.94,84.94,0,0,1,248,77.22a83.4,83.4,0,0,1,4.32-8.85,25.58,25.58,0,0,1,2.79-4.05,5.72,5.72,0,0,1,4-2.16q1.38,0,1.86,2a5.62,5.62,0,0,1,.06.9,13,13,0,0,1-1.44,5.16q-5.16,11.47-12.3,18C247.27,88.36,247.09,88.92,246.77,89.86Zm7.08-11.44a57.64,57.64,0,0,0,4.41-8.07,14.75,14.75,0,0,0,1.41-4.53c0-.79-.14-1.2-.42-1.2s-1.16.8-2.28,2.37a61.54,61.54,0,0,0-4.53,8.52q-2.85,6.17-4.65,10.77A46.63,46.63,0,0,0,253.85,78.42Z" transform="translate(0 -11.2)"/><path class="cls-2" d="M274.85,80.1q-7.38,13-7.38,16.93c0,1,.38,1.55,1.14,1.55q3.06,0,8.22-10.38.36-.83.72-.66a.55.55,0,0,1,.36.49,1.45,1.45,0,0,1-.24.71,42.25,42.25,0,0,1-5.37,8.86q-2.19,2.43-4.38,2.43a3.77,3.77,0,0,1-3.33-1.68,3.43,3.43,0,0,1-.6-2.13,11.41,11.41,0,0,1,.6-3.28,32.68,32.68,0,0,1,3.3-6.24,3.61,3.61,0,0,0,.66-1.71q0-.63-1-.63t-3.9,2.71q-4.32,3.95-8.34,11.87a1.51,1.51,0,0,1-.81.75,7.83,7.83,0,0,1-1.77.21,4.49,4.49,0,0,0-1.74.3q1-1.9,3.78-7.85,5-10.5,6.6-12a2.68,2.68,0,0,1,2-.72,10.07,10.07,0,0,1,1.23.18,3.6,3.6,0,0,0,1.47.06c-1.48.81-3.9,4.56-7.26,11.29a49.76,49.76,0,0,1,5.13-5.56,29.37,29.37,0,0,1,5.55-3.83Q272.69,80,274.19,80A2,2,0,0,1,274.85,80.1Z" transform="translate(0 -11.2)"/><path class="cls-2" d="M268.49,118.74a6.56,6.56,0,0,1-4.08-1.11A3.29,3.29,0,0,1,263,115a8.71,8.71,0,0,1,.9-3.54,11.14,11.14,0,0,1,5.64-4.91,43.18,43.18,0,0,1,8.1-2.68q5-1.23,6.48-1.64,2.16-3.8,5.16-13.5a47,47,0,0,1-5.82,8.58,6.67,6.67,0,0,1-4.74,2.46c-2.16,0-3.42-.91-3.78-2.7a2,2,0,0,1-.12-1.26q.12-.84.15-1.2a4.17,4.17,0,0,1,.39-1.17q.36-.81.48-1.17A24.3,24.3,0,0,1,277,90.07q-1,0-.54-1l1.08-2.1q2-3.92,3.36-6.61a2.34,2.34,0,0,1,2.34-1.26h3.66a5.56,5.56,0,0,1-.6.48,5.06,5.06,0,0,0-1.62,1.68q-2.16,3.74-5.4,10.63a11.36,11.36,0,0,0-1.32,4.14,3,3,0,0,0,.45,1.86,1.55,1.55,0,0,0,1.23.54q1.14,0,3.18-2.4,4.26-5,9.42-15.67a2.41,2.41,0,0,1,2.34-1.26h3.24a7.94,7.94,0,0,0-2.46,2.73,35.79,35.79,0,0,0-1.95,4.48q-1,2.82-2.64,7.5t-2.43,7a15.55,15.55,0,0,0,8.64-5.93,62.19,62.19,0,0,0,3.78-6.61c.28-.55.53-.78.75-.66a.54.54,0,0,1,.33.49,11.42,11.42,0,0,1-1,2.3c-.66,1.35-1.33,2.58-2,3.73a22.67,22.67,0,0,1-2.64,3.51,13,13,0,0,1-3.6,2.84,42.92,42.92,0,0,1-5.28,2.25q-4.62,8.4-9.3,12.37A14.68,14.68,0,0,1,268.49,118.74ZM265,112.8a5.5,5.5,0,0,0-.66,2.44,2,2,0,0,0,.84,1.7,3.52,3.52,0,0,0,2.1.6q3.48,0,7.44-3.56a51.45,51.45,0,0,0,7-7.66l1.32-2.21a110.46,110.46,0,0,0-12.48,3.71A10.75,10.75,0,0,0,265,112.8Z" transform="translate(0 -11.2)"/><path class="cls-2" d="M335.39,97.62a19.22,19.22,0,0,1-12.36,4.5q-7.74,0-9.54-4.31a6.23,6.23,0,0,1-.42-2.37,4.54,4.54,0,0,1,1.38-2.91,7.57,7.57,0,0,1,6-2.46,15.62,15.62,0,0,1,5.19.92,87.42,87.42,0,0,1,9.27,4.48,40.18,40.18,0,0,0,6-7.69,100.71,100.71,0,0,0,5.19-9.27q2.19-4.45,5.34-9.75A56.93,56.93,0,0,1,357.71,60a27.37,27.37,0,0,0-14.28-4,32.54,32.54,0,0,0-6.36.65q-9.3,2-14.16,8.1-3,3.74-3,7.08a5.7,5.7,0,0,0,4.38,5.94,10.19,10.19,0,0,0,2.7.42,10.4,10.4,0,0,0,2.55-.36,6.31,6.31,0,0,0,2.79-1.68c1.76-1.76,2.7-3.39,2.82-4.92,0-.36.27-.48.69-.39s.59.42.51.93a8.68,8.68,0,0,1-4.62,6.66,10.21,10.21,0,0,1-4.92,1.32l-3.12-.54a9,9,0,0,1-6-5.82,9.27,9.27,0,0,1-.6-3.24,10.78,10.78,0,0,1,2.46-6.54q5.28-7.07,18.72-9.06a38.6,38.6,0,0,1,5.22-.36,33.92,33.92,0,0,1,15.9,4A26.16,26.16,0,0,1,363.71,54a6.22,6.22,0,0,1,3.18-1.41q.66,0,.78.27a.35.35,0,0,1,0,.42.49.49,0,0,1-.39.15q-1,0-2.64,2.16a35.1,35.1,0,0,0-2.64,4,28.24,28.24,0,0,1,9.78,10.92,25.49,25.49,0,0,1,2.7,11.64c0,5.2-1.24,9.35-3.72,12.42a16.56,16.56,0,0,1-7.44,5.35A30.83,30.83,0,0,1,353,101.82Q342.65,101.82,335.39,97.62Zm-2-1q-7-3.34-8.88-4a10.82,10.82,0,0,0-3.63-.66A3.42,3.42,0,0,0,318,93.31a4,4,0,0,0-1,2.37,4.44,4.44,0,0,0,.48,2c.84,1.71,2.56,2.58,5.16,2.58A17.92,17.92,0,0,0,333.35,96.66Zm3.48-.12a27.33,27.33,0,0,0,14.22,3.61q9.48,0,15.12-5.41c3-2.91,4.5-7,4.5-12.12a25.3,25.3,0,0,0-2.16-10.38,26.35,26.35,0,0,0-8-10.32q-1.74,2.7-6.69,10.89T345.47,86.1a61.48,61.48,0,0,1-5.4,7.23A40.87,40.87,0,0,1,336.83,96.54Z" transform="translate(0 -11.2)"/><path class="cls-2" d="M367.37,118.38a4.91,4.91,0,0,1-3.93-1.56,4.83,4.83,0,0,1-1.35-3.17,5.56,5.56,0,0,1,1-3.12,10.55,10.55,0,0,1,2.46-2.62,21.74,21.74,0,0,1,2.85-1.85,30,30,0,0,1,3.87-1.69q2.49-.93,3.87-1.38c.92-.3,2.36-.75,4.32-1.34s3.26-1,3.9-1.21a19.55,19.55,0,0,0,1.08-5.28c0-2.07-.58-3.12-1.74-3.12a2,2,0,0,0-.48.07q-2.88,1.5-3.42,1.08a.61.61,0,0,1-.24-.61c0-.23.22-.39.54-.47a12.28,12.28,0,0,0,6.72-5.29,4.09,4.09,0,0,0,.78-2.22,3,3,0,0,0-.84-2,2.43,2.43,0,0,0-1.8-1q-3,0-5,3.42-1.68,2.83-3.18,6c-.24.57-.5.75-.78.57s-.26-.58.06-1.22q3.18-6.24,3.54-6.85c1.8-3.27,4.26-4.92,7.38-4.92a3.64,3.64,0,0,1,3.18,1.56,4.3,4.3,0,0,1,.6,2.49,7.72,7.72,0,0,1-1.59,4,13.3,13.3,0,0,1-4.29,4H385q3.9,0,4,3.89a14.54,14.54,0,0,1-.66,4.39q4.56-.92,9.24-10.74c.16-.37.36-.56.6-.61s.42,0,.42.37a12,12,0,0,1-1.56,3.48,42.39,42.39,0,0,1-2.94,4.68,9.82,9.82,0,0,1-6.12,4.32,29.91,29.91,0,0,1-6.93,11A25.33,25.33,0,0,1,370.13,118,10.3,10.3,0,0,1,367.37,118.38Zm-2.82-5.94a7.73,7.73,0,0,0-.36,2.34,1.9,1.9,0,0,0,.9,1.75,3.4,3.4,0,0,0,1.68.54,12.07,12.07,0,0,0,6.33-2.2,28.37,28.37,0,0,0,6.33-5.55,24.36,24.36,0,0,0,4.38-7.38c-.84.28-2.16.68-4,1.21s-3.22.93-4.26,1.25a33.15,33.15,0,0,0-6.66,2.76A9.33,9.33,0,0,0,364.55,112.44Z" transform="translate(0 -11.2)"/><path class="cls-2" d="M400,98.47a3.66,3.66,0,0,0,2.4-1.15c1.48-1.47,3.36-4.5,5.64-9,.28-.61.56-.78.84-.54a.52.52,0,0,1,.12.38,4.84,4.84,0,0,1-.48,1.33c-.32.7-.61,1.33-.87,1.88s-.76,1.47-1.5,2.74a19.21,19.21,0,0,1-2,2.91c-1.64,1.88-3.19,2.81-4.65,2.81a3.63,3.63,0,0,1-3.15-1.31,4.88,4.88,0,0,1-1-2.94,9.43,9.43,0,0,1,.78-3.54L400,82.2a3.08,3.08,0,0,0,.12-1,3,3,0,0,0-.72-1.56l3.3-.06c.92,0,1.46.18,1.62.51s0,.88-.36,1.59l-4.8,11.22a9.49,9.49,0,0,0-1,3.79Q398.09,98.47,400,98.47Zm5.88-22a2.79,2.79,0,0,1-1.86.72,2,2,0,0,1-1.62-.72,2.19,2.19,0,0,1-.48-1.74,2.94,2.94,0,0,1,1-1.74,2.84,2.84,0,0,1,1.86-.72,2.12,2.12,0,0,1,1.65.72,2,2,0,0,1,.45,1.74A2.88,2.88,0,0,1,405.83,76.44Z" transform="translate(0 -11.2)"/><path class="cls-2" d="M410.69,90.54a11.93,11.93,0,0,0-.84,4.57,4.34,4.34,0,0,0,.75,2.67,2.51,2.51,0,0,0,2.13,1q5.46,0,9.9-10.26c.28-.64.62-.92,1-.85a.3.3,0,0,1,.24.31,24.76,24.76,0,0,1-1.35,3.14,25,25,0,0,1-2.73,4.71q-3.06,4.22-7.56,4.21a5.78,5.78,0,0,1-4.08-1.56,5.54,5.54,0,0,1-1.68-4.27,14.61,14.61,0,0,1,1.29-5.72,22,22,0,0,1,3.51-5.65,13.45,13.45,0,0,1,5.1-3.8,6.64,6.64,0,0,1,2.64-.61,4.14,4.14,0,0,1,2.34.72,2.44,2.44,0,0,1,1,1.87c0,2.39-1.44,4.7-4.32,6.89a12.85,12.85,0,0,1-3.72,1.84A12.5,12.5,0,0,1,410.69,90.54Zm10.08-9.6c0-.79-.32-1.2-1-1.2q-1.68,0-5.1,4.14a30.94,30.94,0,0,0-3.6,5.65,9.77,9.77,0,0,0,3-.72,11.64,11.64,0,0,0,3.39-1.92Q420.77,84.07,420.77,80.94Z" transform="translate(0 -11.2)"/><path class="cls-2" d="M440.93,80.1q-7.38,13-7.38,16.93c0,1,.38,1.55,1.14,1.55,2,0,5.17-3.32,8.61-10.24.51-.76.79-1,1.09-.84s-.05.64-.33,1.24a40.7,40.7,0,0,1-5.68,8.86Q436.19,100,434,100a3.77,3.77,0,0,1-3.33-1.68,3.43,3.43,0,0,1-.6-2.13,11.41,11.41,0,0,1,.6-3.28A32.68,32.68,0,0,1,434,86.7a3.61,3.61,0,0,0,.66-1.71q0-.63-1-.63t-3.9,2.71q-4.32,3.95-8.34,11.87a1.51,1.51,0,0,1-.81.75,7.83,7.83,0,0,1-1.77.21,4.49,4.49,0,0,0-1.74.3q1-1.9,3.78-7.85,5-10.5,6.6-12a2.68,2.68,0,0,1,2-.72,10.07,10.07,0,0,1,1.23.18,3.6,3.6,0,0,0,1.47.06c-1.48.81-3.9,4.56-7.26,11.29A49.76,49.76,0,0,1,430,85.59a29.37,29.37,0,0,1,5.55-3.83Q438.77,80,440.27,80A2,2,0,0,1,440.93,80.1ZM435.23,75a.6.6,0,0,1-.21-.1.31.31,0,0,1-.15-.3.71.71,0,0,1,.12-.39,17.11,17.11,0,0,1,1.71-1.38q1.59-1.19,3.45-2.49c1.24-.85,2.14-1.5,2.7-1.92a2.76,2.76,0,0,1,1.65-.63,3.31,3.31,0,0,1,1.44.3c.42.21.63.45.63.75a1.79,1.79,0,0,1-.18.81c-.2.48-2,1.5-5.4,3S435.67,75,435.23,75Z" transform="translate(0 -11.2)"/><g class="cls-3"><path class="cls-4" d="M438.93,20.14h0A43.83,43.83,0,0,0,378,30.69l-4.62,6.56L367.32,33a43.84,43.84,0,0,0-60.91,10.55h0A43.85,43.85,0,0,0,317,104.42l6.08,4.29,31.39,22.12,40.07,28.23L444.87,87.6h0l4.62-6.55A43.84,43.84,0,0,0,438.93,20.14Z" transform="translate(0 -11.2)"/></g></g></g></svg>